<svg width="200" height="80" viewBox="0 0 200 80" xmlns="http://www.w3.org/2000/svg">
  <!-- Background -->
  <rect width="200" height="80" rx="8" fill="url(#gradient)" />
  
  <!-- Building Icon -->
  <g transform="translate(20, 20)">
    <!-- Main Building -->
    <rect x="0" y="10" width="25" height="35" fill="white" rx="3"/>
    <!-- Windows -->
    <rect x="3" y="15" width="4" height="4" fill="#3b82f6"/>
    <rect x="9" y="15" width="4" height="4" fill="#3b82f6"/>
    <rect x="15" y="15" width="4" height="4" fill="#3b82f6"/>
    <rect x="3" y="22" width="4" height="4" fill="#3b82f6"/>
    <rect x="9" y="22" width="4" height="4" fill="#3b82f6"/>
    <rect x="15" y="22" width="4" height="4" fill="#3b82f6"/>
    <rect x="3" y="29" width="4" height="4" fill="#3b82f6"/>
    <rect x="9" y="29" width="4" height="4" fill="#3b82f6"/>
    <rect x="15" y="29" width="4" height="4" fill="#3b82f6"/>
    <!-- Door -->
    <rect x="10" y="35" width="5" height="10" fill="#1e40af"/>
  </g>
  
  <!-- Text -->
  <text x="60" y="35" font-family="Arial, sans-serif" font-size="24" font-weight="bold" fill="white">
    SYNDICPRO
  </text>
  <text x="60" y="50" font-family="Arial, sans-serif" font-size="14" fill="rgba(255,255,255,0.8)">
    Gestion Immobilière Professionnelle
  </text>
  
  <!-- Decorative Elements -->
  <circle cx="170" cy="25" r="4" fill="rgba(255,255,255,0.3)"/>
  <circle cx="180" cy="45" r="3" fill="rgba(255,255,255,0.2)"/>
  <circle cx="175" cy="60" r="2" fill="rgba(255,255,255,0.1)"/>
  
  <!-- Gradient Definition -->
  <defs>
    <linearGradient id="gradient" x1="0%" y1="0%" x2="100%" y2="100%">
      <stop offset="0%" style="stop-color:#1e40af;stop-opacity:1" />
      <stop offset="50%" style="stop-color:#3b82f6;stop-opacity:1" />
      <stop offset="100%" style="stop-color:#60a5fa;stop-opacity:1" />
    </linearGradient>
  </defs>
</svg>
