<svg width="200" height="60" viewBox="0 0 200 60" xmlns="http://www.w3.org/2000/svg">
  <!-- Background -->
  <rect width="200" height="60" rx="8" fill="url(#gradient)" />
  
  <!-- Building Icon -->
  <g transform="translate(15, 15)">
    <!-- Main Building -->
    <rect x="0" y="15" width="20" height="25" fill="white" rx="2"/>
    <!-- Windows -->
    <rect x="3" y="18" width="3" height="3" fill="#3b82f6"/>
    <rect x="8" y="18" width="3" height="3" fill="#3b82f6"/>
    <rect x="13" y="18" width="3" height="3" fill="#3b82f6"/>
    <rect x="3" y="23" width="3" height="3" fill="#3b82f6"/>
    <rect x="8" y="23" width="3" height="3" fill="#3b82f6"/>
    <rect x="13" y="23" width="3" height="3" fill="#3b82f6"/>
    <rect x="3" y="28" width="3" height="3" fill="#3b82f6"/>
    <rect x="8" y="28" width="3" height="3" fill="#3b82f6"/>
    <rect x="13" y="28" width="3" height="3" fill="#3b82f6"/>
    <!-- Door -->
    <rect x="8" y="32" width="4" height="8" fill="#1e40af"/>
  </g>
  
  <!-- Text -->
  <text x="45" y="25" font-family="Arial, sans-serif" font-size="16" font-weight="bold" fill="white">
    SYNDIC
  </text>
  <text x="45" y="40" font-family="Arial, sans-serif" font-size="12" fill="rgba(255,255,255,0.8)">
    Gestion Immobilière
  </text>
  
  <!-- Decorative Elements -->
  <circle cx="170" cy="20" r="3" fill="rgba(255,255,255,0.3)"/>
  <circle cx="180" cy="35" r="2" fill="rgba(255,255,255,0.2)"/>
  <circle cx="175" cy="45" r="1.5" fill="rgba(255,255,255,0.1)"/>
  
  <!-- Gradient Definition -->
  <defs>
    <linearGradient id="gradient" x1="0%" y1="0%" x2="100%" y2="100%">
      <stop offset="0%" style="stop-color:#1e40af;stop-opacity:1" />
      <stop offset="50%" style="stop-color:#3b82f6;stop-opacity:1" />
      <stop offset="100%" style="stop-color:#60a5fa;stop-opacity:1" />
    </linearGradient>
  </defs>
</svg>
